<svg xmlns="http://www.w3.org/2000/svg" viewBox="0 0 32 32" fill="none">
  <defs>
    <linearGradient id="g" x1="0" y1="0" x2="32" y2="32" gradientUnits="userSpaceOnUse">
      <stop offset="0%" stop-color="#635BFF"/>
      <stop offset="100%" stop-color="#818CF8"/>
    </linearGradient>
  </defs>
  <rect width="32" height="32" rx="8" fill="#0D0D12"/>
  <path d="M9 22V10h5.5c1.4 0 2.5.4 3.3 1.1.8.8 1.2 1.8 1.2 3 0 1.3-.4 2.3-1.2 3-.8.7-1.9 1.1-3.3 1.1H12.5V22H9z M12.5 15.2h2c.6 0 1-.15 1.3-.45.3-.3.45-.7.45-1.25s-.15-.95-.45-1.25c-.3-.3-.7-.45-1.3-.45h-2v3.4z" fill="url(#g)"/>
  <circle cx="22" cy="20" r="2.5" fill="url(#g)" opacity="0.7"/>
</svg>
