<svg xmlns="http://www.w3.org/2000/svg" viewBox="0 0 200 40" fill="none">
  <defs>
    <linearGradient id="lg" x1="0" y1="0" x2="200" y2="40" gradientUnits="userSpaceOnUse">
      <stop offset="0%" stop-color="#635BFF"/>
      <stop offset="100%" stop-color="#818CF8"/>
    </linearGradient>
  </defs>
  <!-- Icon -->
  <rect width="36" height="36" x="2" y="2" rx="8" fill="#1A1A26" stroke="url(#lg)" stroke-width="1.5"/>
  <path d="M12 26V14h5c1.2 0 2.1.35 2.8.95.7.6 1 1.45 1 2.55 0 1.1-.35 2-1 2.6-.7.6-1.6.9-2.8.9H15.2V26H12z M15.2 18.8h1.6c.45 0 .8-.12 1.05-.35.25-.24.38-.56.38-1s-.13-.76-.38-1c-.25-.23-.6-.35-1.05-.35h-1.6v2.7z" fill="url(#lg)"/>
  <circle cx="24.5" cy="24" r="2" fill="url(#lg)" opacity="0.7"/>
  <!-- Text -->
  <text x="48" y="28" font-family="Inter, system-ui, sans-serif" font-size="22" font-weight="700" fill="#F0F0F7">Proof<tspan fill="url(#lg)">grad</tspan></text>
</svg>
